<svg width="200" height="200" viewBox="0 0 200 200" fill="none" xmlns="http://www.w3.org/2000/svg">
<circle cx="100" cy="100" r="100" fill="#212121"/>
<path d="M158.01 140.301L141.711 124.17V62.1148L134.013 48.0173C133.445 46.9424 132.593 46.0426 131.549 45.4148C130.505 44.787 129.309 44.4552 128.089 44.4552C126.87 44.4552 125.673 44.787 124.629 45.4148C123.585 46.0426 122.733 46.9424 122.166 48.0173L114.936 62.1481V97.6418L53.7231 36.9859C53.255 36.5159 52.6569 36.1953 52.0051 36.0651C51.3533 35.9349 50.6774 36.0009 50.0634 36.2548C49.4495 36.5086 48.9253 36.9388 48.5579 37.4904C48.1904 38.042 47.9962 38.6902 48.0001 39.3521V66.2807H55.2627V71.6131H48.0001V92.9427H55.2627V98.275H48.0001V120.438H55.2627V125.77H48.0001V142.667C48.0001 143.551 48.3527 144.399 48.9803 145.024C49.608 145.649 50.4592 146 51.3469 146H155.634C156.298 146.004 156.949 145.81 157.503 145.444C158.057 145.079 158.489 144.557 158.744 143.945C158.999 143.334 159.065 142.661 158.935 142.012C158.804 141.363 158.482 140.767 158.01 140.301V140.301ZM74.7746 119.605V89.4099L105.13 119.605H74.7746ZM135.017 126.637H121.63V118.538H135.017V126.637ZM135.017 113.306H121.63V63.7811L128.123 51.2167L135.017 63.8145V113.306Z" fill="white"/>
</svg>
