<svg width="200" height="200" viewBox="0 0 200 200" fill="none" xmlns="http://www.w3.org/2000/svg">
<circle cx="100" cy="100" r="100" fill="#212121"/>
<path d="M157.908 105.434L134.898 135.62C133.504 136.935 131.819 137.593 129.843 137.593C127.868 137.593 126.183 136.916 124.788 135.561C123.394 134.207 122.696 132.543 122.696 130.569C122.696 128.596 123.394 126.912 124.788 125.519L143.963 100.442L124.788 75.3649C123.394 73.9717 122.696 72.3076 122.696 70.3727C122.696 68.4377 123.394 66.7737 124.788 65.3805C126.183 63.9873 127.868 63.2907 129.843 63.2907C131.819 63.2907 133.504 63.9873 134.898 65.3805L157.908 95.4498C159.303 96.8429 160 98.507 160 100.442C160 102.377 159.303 104.041 157.908 105.434ZM100.5 152.57C100.423 152.802 100.306 153.247 100.151 153.905C99.9964 154.563 99.8802 155.008 99.8027 155.24L99.396 156.459L98.8149 157.678L97.9434 158.607L96.7231 159.42L95.1543 159.826L93.0625 160C91.2031 160 89.4212 159.033 87.7168 157.098C86.0124 155.163 85.3926 153.305 85.8574 151.525L100.5 48.4302C101.817 43.4767 105.536 41 111.656 41C113.361 41 114.503 41.9094 115.084 43.7283C115.666 45.5472 115.685 47.4628 115.143 49.4751L100.5 152.57ZM76.2119 135.561C74.8174 136.916 73.1323 137.593 71.1567 137.593C69.1812 137.593 67.4961 136.935 66.1016 135.62L43.0918 105.434C41.6973 104.041 41 102.377 41 100.442C41 98.507 41.6973 96.8429 43.0918 95.4498L66.1016 65.3805C67.4961 63.9873 69.1812 63.2907 71.1567 63.2907C73.1323 63.2907 74.8174 63.9873 76.2119 65.3805C77.6064 66.7737 78.3037 68.4377 78.3037 70.3727C78.3037 72.3076 77.6064 73.9717 76.2119 75.3649L57.0371 100.442L76.2119 125.519C77.6064 126.912 78.3037 128.596 78.3037 130.569C78.3037 132.543 77.6064 134.207 76.2119 135.561Z" fill="white"/>
</svg>
