<svg width="200" height="200" viewBox="0 0 200 200" fill="none" xmlns="http://www.w3.org/2000/svg">
<circle cx="100" cy="100" r="100" fill="#212121"/>
<path d="M121.89 41.0002C102.449 41.0002 86.7811 56.6677 86.7811 76.1095C86.7811 77.1409 86.9435 78.5365 87.0576 79.8136L49.4775 117.389C47.4248 119.429 45.7957 121.854 44.684 124.526C43.5723 127.197 43 130.062 43 132.956C43 135.85 43.5723 138.715 44.684 141.386C45.7957 144.058 47.4248 146.483 49.4775 148.522C51.517 150.575 53.9423 152.204 56.6139 153.316C59.2854 154.428 62.1505 155 65.0441 155C67.9377 155 70.8028 154.428 73.4744 153.316C76.1459 152.204 78.5712 150.575 80.6107 148.522L118.186 110.942C119.459 111.056 120.863 111.219 121.89 111.219C141.332 111.219 157 95.5513 157 76.1095C157.023 70.4525 155.606 64.8827 152.883 59.9241L150.14 54.8508L146.028 58.9674L127.1 77.7509L120.245 70.8958L139.028 51.9719L143.153 47.8553L138.076 45.1124C133.115 42.3946 127.547 40.9798 121.89 41.0002ZM121.89 49.7775C124.023 49.7775 125.612 50.6992 127.508 51.1512L110.919 67.7403L107.759 70.9002L110.919 73.9152L124.085 87.0812L127.104 90.241L130.255 87.0812L146.853 70.492C147.305 72.3879 148.222 73.9766 148.222 76.1095C148.222 90.8993 136.68 102.442 121.89 102.442C120.135 102.442 118.731 102.442 117.633 102.165L115.307 101.48L113.526 103.267L74.4358 142.356C69.0378 147.754 61.0504 147.754 55.6524 142.356L55.5119 142.216C50.2455 136.818 50.2894 128.918 55.6436 123.564L94.7334 84.4787L96.5196 82.6969L95.8262 80.3709C95.5629 79.2737 95.5541 77.8694 95.5541 76.1139C95.5541 61.3241 107.096 49.7819 121.886 49.7819L121.89 49.7775Z" fill="white"/>
</svg>
